<svg width="153" height="92" viewBox="0 0 153 92" fill="none" xmlns="http://www.w3.org/2000/svg">
<path d="M19.263 42.3547C19.344 42.6118 19.3968 42.8962 19.4214 43.2079C19.4571 43.5161 19.4205 43.8287 19.3116 44.1457C19.2103 44.4479 19.0184 44.7358 18.736 45.0091C18.4535 45.2825 18.0441 45.5037 17.5076 45.6729L10.1312 47.9986C9.60593 48.1643 9.15978 48.2496 8.79278 48.2548C8.43695 48.2564 8.13408 48.1921 7.88418 48.062C7.63427 47.932 7.42998 47.7322 7.2713 47.4627C7.11262 47.1933 6.97161 46.863 6.84828 46.4718L0.912273 27.6452C0.711411 27.0082 0.62372 26.4767 0.6492 26.0509C0.671157 25.614 0.784536 25.2526 0.989339 24.9668C1.19062 24.6699 1.46686 24.4354 1.81806 24.2632C2.17691 24.0763 2.58545 23.9107 3.04368 23.7662L18.618 18.8556C19.1544 18.6865 19.5108 18.8813 19.6869 19.4401L20.1732 20.9825C20.2437 21.206 20.2225 21.3724 20.1095 21.4818C19.9965 21.5911 19.845 21.6757 19.655 21.7357C19.5433 21.7709 19.3648 21.8087 19.1195 21.8492C18.8742 21.8897 18.5881 21.9369 18.261 21.9909C17.9305 22.0337 17.5702 22.0797 17.1802 22.1289C16.7979 22.1634 16.4118 22.2053 16.0218 22.2545C15.1084 22.3582 14.1079 22.4587 13.0204 22.5558L14.363 26.814L20.5994 24.8477C20.8341 24.7737 20.9885 24.854 21.0625 25.0887L21.591 26.7652C21.6686 27.0111 21.59 27.171 21.3553 27.245L15.1189 29.2113L19.263 42.3547ZM11.5161 22.7536L10.1239 22.8977L16.8792 44.3228C17.1474 44.2382 17.3636 44.1639 17.5277 44.0999C17.6883 44.0247 17.8084 43.9377 17.8878 43.8389C17.9637 43.729 17.9973 43.6016 17.9885 43.457C17.9763 43.3011 17.9296 43.0946 17.8485 42.8376L11.5161 22.7536Z" fill="white"/>
<path d="M24.2296 27.2419C24.1097 26.8619 24.0376 26.516 24.013 26.2043C23.9849 25.8814 24.0359 25.595 24.166 25.3451C24.2961 25.0952 24.5129 24.8671 24.8165 24.6608C25.1201 24.4545 25.5401 24.2667 26.0766 24.0976L33.4194 21.7824C33.9336 21.6203 34.3629 21.5402 34.7076 21.5421C35.0522 21.544 35.3457 21.6174 35.5879 21.7622C35.8302 21.907 36.0268 22.1214 36.1779 22.4056C36.3401 22.6862 36.4846 23.0277 36.6115 23.43L37.0026 24.6706L39.5826 19.876C39.7545 19.5638 39.9466 19.3742 40.1589 19.3072C40.2819 19.2685 40.3969 19.2629 40.5039 19.2906C40.6186 19.3036 40.72 19.3331 40.8082 19.379L41.8111 19.929C42.0316 20.0438 42.1735 20.2018 42.237 20.403C42.2757 20.5259 42.2771 20.6668 42.2412 20.8256C42.2129 20.9697 42.1399 21.1278 42.0222 21.3001L37.8431 27.3362L40.5177 35.819C40.641 36.2102 40.7223 36.5655 40.7616 36.8849C40.7973 37.1931 40.7519 37.4777 40.6254 37.7388C40.4953 37.9887 40.2673 38.2203 39.9413 38.4337C39.6154 38.647 39.1451 38.8506 38.5304 39.0444L31.4893 41.2645C30.9528 41.4336 30.5011 41.5208 30.1341 41.5259C29.7671 41.531 29.4586 41.4685 29.2087 41.3385C28.9588 41.2084 28.7545 41.0086 28.5958 40.7392C28.4371 40.4697 28.2961 40.1394 28.1728 39.7482L24.2296 27.2419ZM35.2076 23.9464C35.1301 23.7005 35.0517 23.5102 34.9723 23.3755C34.893 23.2408 34.7924 23.1557 34.6707 23.1204C34.5455 23.0739 34.3972 23.0714 34.2261 23.1131C34.0514 23.1436 33.8299 23.2012 33.5617 23.2857L38.0864 37.6362C38.3546 37.5516 38.5708 37.4773 38.7349 37.4133C38.8955 37.3381 39.0155 37.2511 39.095 37.1523C39.1709 37.0424 39.2045 36.915 39.1957 36.7704C39.1834 36.6145 39.1368 36.408 39.0557 36.151L35.2076 23.9464Z" fill="white"/>
<path d="M42.8717 21.364C42.7519 20.984 42.6797 20.6382 42.6552 20.3264C42.6271 20.0035 42.6781 19.7171 42.8082 19.4672C42.9383 19.2173 43.1551 18.9892 43.4587 18.7829C43.7623 18.5766 44.1823 18.3889 44.7188 18.2197L52.0616 15.9045C52.5757 15.7424 53.0051 15.6623 53.3498 15.6642C53.7021 15.6515 53.9976 15.7119 54.2363 15.8455C54.4751 15.9791 54.6682 16.1824 54.8157 16.4554C54.9632 16.7283 55.1004 17.066 55.2272 17.4683L59.181 30.0082C59.3008 30.3882 59.3786 30.7323 59.4144 31.0405C59.4466 31.3376 59.405 31.6149 59.2896 31.8724C59.1707 32.1188 58.965 32.3434 58.6726 32.5462C58.3879 32.7342 57.9884 32.9093 57.4743 33.0714L50.1315 35.3866C49.595 35.5558 49.1432 35.6429 48.7762 35.648C48.4092 35.6532 48.1008 35.5907 47.8509 35.4606C47.601 35.3305 47.3967 35.1307 47.238 34.8613C47.0793 34.5919 46.9383 34.2615 46.815 33.8704L42.8717 21.364ZM40.495 11.6629C40.2518 10.8918 40.168 10.1195 40.2437 9.34611C40.3305 8.5692 40.5461 7.85 40.8904 7.18848C41.2348 6.52697 41.702 5.94344 42.2922 5.4379C42.8788 4.92118 43.5577 4.54125 44.3288 4.2981C45.0888 4.05847 45.8517 3.98382 46.6174 4.07415C47.3908 4.14978 48.1083 4.35978 48.7698 4.70414C49.4313 5.0485 50.0148 5.51575 50.5203 6.10589C51.0371 6.6925 51.417 7.37139 51.6601 8.14256C51.8998 8.90255 51.9762 9.671 51.8894 10.4479C51.8102 11.2101 51.5985 11.922 51.2541 12.5835C50.9097 13.245 50.4443 13.8341 49.8576 14.3508C49.2787 14.8528 48.6092 15.2237 47.8492 15.4633C47.078 15.7064 46.3058 15.7902 45.5324 15.7146C44.7555 15.6278 44.0363 15.4122 43.3748 15.0678C42.7133 14.7235 42.1259 14.2636 41.6127 13.6881C41.1072 13.098 40.7346 12.4229 40.495 11.6629ZM53.8498 18.0685C53.7723 17.8226 53.6938 17.6323 53.6145 17.4976C53.5352 17.3629 53.4346 17.2779 53.3129 17.2425C53.1876 17.196 53.0394 17.1936 52.8683 17.2353C52.6936 17.2658 52.4721 17.3233 52.2039 17.4079L56.7286 31.7583C56.9968 31.6738 57.213 31.5995 57.3771 31.5354C57.5377 31.4602 57.6577 31.3732 57.7372 31.2745C57.8131 31.1645 57.8467 31.0372 57.8379 30.8925C57.8256 30.7366 57.7789 30.5302 57.6979 30.2731L53.8498 18.0685ZM48.8605 9.0253C49.1071 9.80764 49.1832 10.5946 49.0888 11.3862C49.0055 12.1743 48.7823 12.9082 48.4191 13.5879C48.8309 13.3352 49.1807 13.0222 49.4685 12.6488C49.7674 12.272 49.9964 11.868 50.1554 11.437C50.322 10.9912 50.4149 10.5258 50.4339 10.0406C50.4529 9.55534 50.3867 9.07244 50.2352 8.59186C50.0836 8.11127 49.8609 7.67771 49.567 7.29116C49.2731 6.90462 48.9318 6.58216 48.5432 6.32379C48.1622 6.05072 47.7429 5.85115 47.2854 5.72509C46.8355 5.58432 46.3677 5.52294 45.8819 5.54096C46.5693 5.88945 47.1731 6.36259 47.6933 6.96038C48.2248 7.55464 48.6138 8.24295 48.8605 9.0253Z" fill="white"/>
<path d="M72.4837 28.7076C71.0196 29.1692 69.6447 29.3877 68.3591 29.363C67.0734 29.3383 65.9119 29.084 64.8746 28.6001C63.8338 28.105 62.9284 27.3768 62.1584 26.4154C61.3883 25.454 60.7813 24.2692 60.3373 22.861L55.0726 6.1635C54.9528 5.7835 54.8806 5.43764 54.856 5.12591C54.8279 4.803 54.8789 4.5166 55.009 4.26669C55.1391 4.01679 55.3559 3.78868 55.6595 3.58238C55.9631 3.37608 56.3831 3.18835 56.9196 3.0192L64.2625 0.704003C64.743 0.552476 65.1557 0.477671 65.5003 0.479589C65.845 0.481507 66.1384 0.554863 66.3807 0.699655C66.6306 0.829747 66.8366 1.0351 66.9988 1.31572C67.1687 1.58164 67.3171 1.91577 67.4439 2.31812L69.9494 10.2645C70.9893 10.1332 72.0142 10.1296 73.0239 10.2535C74.0414 10.3628 74.9947 10.6582 75.8837 11.1397C76.7692 11.61 77.5662 12.2864 78.2745 13.169C78.9828 14.0515 79.559 15.1969 80.003 16.6051C80.373 17.7786 80.5593 18.8565 80.5618 19.8387C80.5719 20.8062 80.4351 21.6972 80.1512 22.5117C79.8786 23.3226 79.4812 24.0499 78.9593 24.6937C78.4485 25.334 77.8498 25.9098 77.1632 26.4212C76.4878 26.9291 75.7486 27.371 74.9456 27.7471C74.1426 28.1231 73.322 28.4433 72.4837 28.7076ZM74.7172 25.3862C75.5538 24.9995 76.2286 24.5287 76.7417 23.9737C77.2513 23.4076 77.6118 22.7778 77.8232 22.0845C78.0459 21.3876 78.1359 20.6404 78.0933 19.8429C78.0507 19.0454 77.8938 18.2163 77.6224 17.3557C77.3546 16.5063 77.0077 15.7371 76.5816 15.0482C76.1555 14.3593 75.6514 13.7933 75.0693 13.3502C74.4873 12.907 73.8251 12.5997 73.083 12.4282C72.352 12.2532 71.533 12.2473 70.626 12.4104L74.7172 25.3862ZM66.0612 2.90154C65.9837 2.65566 65.9053 2.46536 65.8259 2.33063C65.7466 2.19591 65.646 2.11088 65.5243 2.07554C65.3991 2.02902 65.2508 2.0266 65.0797 2.06828C64.905 2.09879 64.6835 2.15633 64.4153 2.2409L72.0903 26.583C72.1462 26.5654 72.23 26.539 72.3418 26.5037C72.45 26.4573 72.5656 26.4147 72.6886 26.376C72.8192 26.3225 72.9442 26.2708 73.0636 26.2209C73.183 26.1709 73.2839 26.1207 73.3662 26.0702L66.0612 2.90154Z" fill="white"/>
<path d="M92.1434 22.1403C91.5399 22.3306 90.9185 22.4835 90.2791 22.5991C89.6509 22.7112 89.031 22.7715 88.4193 22.78C87.8153 22.7739 87.2289 22.7068 86.6602 22.579C86.0916 22.4511 85.5632 22.2368 85.0752 21.936C84.5983 21.6317 84.1712 21.2319 83.7938 20.7365C83.4165 20.2411 83.1133 19.6302 82.8842 18.9037C82.5776 17.9314 82.4995 17.0406 82.6498 16.2314C82.8002 15.4221 83.1105 14.6915 83.5807 14.0395C84.0621 13.3839 84.6664 12.8063 85.3935 12.3067C86.1207 11.8071 86.904 11.3881 87.7435 11.0497L87.3787 9.89295C87.2413 9.45707 87.0762 9.12822 86.8834 8.9064C86.6906 8.68458 86.4853 8.5404 86.2678 8.47384C86.0578 8.39258 85.8414 8.36866 85.6185 8.40209C85.4032 8.42081 85.2006 8.46013 85.0106 8.52003C84.787 8.59051 84.5573 8.69981 84.3214 8.84791C84.0967 8.9925 83.8828 9.15208 83.6798 9.32667C83.4733 9.49009 83.2815 9.66115 83.1044 9.83987C82.9273 10.0186 82.7802 10.1756 82.6631 10.3108C82.6101 10.3766 82.561 10.4351 82.5157 10.4863C82.4704 10.5374 82.4198 10.5718 82.3639 10.5894C82.2633 10.6211 82.1454 10.5784 82.0102 10.4613L81.1547 9.73578C81.0742 9.67516 81.0198 9.60015 80.9916 9.51074C80.9634 9.42133 80.9723 9.33252 81.0182 9.24432C81.0753 9.1526 81.1303 9.07381 81.1833 9.00796C81.4711 8.63461 81.8577 8.22397 82.3431 7.77601C82.8285 7.32806 83.3898 6.88691 84.0269 6.45255C84.6753 6.01467 85.3918 5.59829 86.1766 5.2034C86.9614 4.80852 87.7952 4.47188 88.6781 4.1935C89.5164 3.9292 90.341 3.6999 91.1522 3.50559C91.9745 3.30775 92.7677 3.19282 93.5317 3.16082C94.3034 3.11411 95.0344 3.17237 95.7248 3.33559C96.4229 3.48412 97.0724 3.77083 97.6733 4.19575C98.2853 4.61713 98.8373 5.19876 99.3293 5.94064C99.8212 6.68251 100.247 7.62344 100.606 8.76343L102.964 16.2404C103.08 16.6092 103.151 16.9495 103.175 17.2612C103.196 17.5618 103.142 17.837 103.012 18.0869C102.881 18.3368 102.665 18.5649 102.361 18.7712C102.054 18.9664 101.632 19.1485 101.096 19.3177L92.1434 22.1403ZM88.4148 13.1788C87.6101 13.4325 86.9656 13.7463 86.4814 14.1201C85.9972 14.494 85.6403 14.9014 85.4107 15.3424C85.1811 15.7834 85.0642 16.2504 85.0598 16.7432C85.052 17.2249 85.1221 17.7005 85.2701 18.1699C85.4181 18.6393 85.6317 19.0634 85.9109 19.4423C86.1865 19.81 86.5414 20.0975 86.9753 20.3047C87.4093 20.512 87.9283 20.6186 88.5323 20.6248C89.1363 20.6309 89.8407 20.5072 90.6454 20.2534L88.4148 13.1788ZM100.501 17.957C100.769 17.8724 100.985 17.7981 101.149 17.7341C101.31 17.6589 101.43 17.5719 101.509 17.4731C101.585 17.3632 101.619 17.2358 101.61 17.0912C101.598 16.9353 101.551 16.7288 101.47 16.4718L99.0651 8.84391C98.7797 7.93862 98.445 7.20858 98.0612 6.65379C97.6739 6.08782 97.2733 5.65505 96.8593 5.3555C96.4531 5.04125 96.0506 4.8364 95.6518 4.74094C95.2496 4.6343 94.8873 4.5765 94.565 4.56754C94.745 4.67054 94.9666 4.82797 95.23 5.03982C95.5046 5.24815 95.7853 5.53441 96.0722 5.8986C96.359 6.26279 96.6499 6.71785 96.9449 7.26378C97.2364 7.79854 97.5002 8.44033 97.7363 9.18914L100.501 17.957Z" fill="white"/>
<path d="M31.3161 71.5216C31.0549 70.2647 31.0639 69.1437 31.3432 68.1586C31.6224 67.1736 32.083 66.3157 32.725 65.5849C33.3635 64.843 34.1372 64.2181 35.0461 63.7104C35.955 63.2026 36.9068 62.7919 37.9015 62.4783C38.7174 62.221 39.527 62.0026 40.3305 61.823C41.134 61.6434 41.8796 61.4943 42.5672 61.3758C43.2548 61.2573 43.8529 61.167 44.3617 61.1049C44.8705 61.0428 45.2437 60.9988 45.4813 60.9731C45.626 60.9643 45.7124 61.0046 45.7406 61.0941C45.7477 61.1164 45.7577 61.187 45.7705 61.3058L45.8997 62.5921C45.902 62.6774 45.8843 62.7383 45.8466 62.7747C45.8166 62.7965 45.7849 62.8126 45.7513 62.8232C45.2596 62.9783 44.8613 63.196 44.5565 63.4764C44.2517 63.7568 44.0296 64.0849 43.89 64.4607C43.7504 64.8364 43.6844 65.2505 43.6918 65.7027C43.6993 66.155 43.7564 66.6285 43.8632 67.1232L46.7002 79.6282C46.9209 80.6399 46.9619 81.6468 46.8232 82.649C46.6845 83.6511 46.3486 84.5926 45.8153 85.4734C45.2821 86.3542 44.5389 87.1537 43.5858 87.872C42.6327 88.5903 41.4632 89.1679 40.0773 89.6049C39.1497 89.8974 38.2414 90.1346 37.3527 90.3165C36.4639 90.4985 35.6481 90.6389 34.9052 90.738C34.1623 90.8371 33.5162 90.9118 32.9669 90.9621C32.4252 90.9978 32.0337 91.0229 31.7926 91.0375C31.6479 91.0462 31.5615 91.0059 31.5333 90.9165C31.5298 90.9053 31.5215 90.8403 31.5087 90.7215L31.3919 89.3575C31.3896 89.2723 31.4035 89.2187 31.4335 89.197C31.4711 89.1605 31.5067 89.137 31.5403 89.1265C32.032 88.9714 32.4617 88.7561 32.8295 88.4804C33.2084 88.2012 33.5014 87.8446 33.7086 87.4106C33.9159 86.9767 34.0355 86.4597 34.0675 85.8598C34.1107 85.2564 34.0481 84.5512 33.8797 83.7442L31.3161 71.5216ZM41.9725 87.2564C42.7584 86.7874 43.3971 86.2604 43.8885 85.6754C44.3875 85.0757 44.7571 84.4554 44.9974 83.8144C45.2488 83.1699 45.3908 82.5292 45.4235 81.8923C45.4637 81.2406 45.4199 80.6339 45.2919 80.0722L42.455 67.5672C42.3476 67.1096 42.2807 66.6637 42.2545 66.2297C42.2394 65.7921 42.2701 65.383 42.3468 65.0025C42.4346 64.6185 42.5829 64.2707 42.7919 63.9591C43.0084 63.6327 43.2982 63.3632 43.6612 63.1505C42.8783 63.4342 42.2835 63.7692 41.8769 64.1554C41.4815 64.5381 41.2117 64.9488 41.0674 65.3875C40.9195 65.815 40.8623 66.257 40.8956 66.7134C40.9401 67.1663 41.0073 67.5936 41.0971 67.9954L43.9172 80.5056C44.0346 81.0338 44.0829 81.5961 44.0621 82.1925C44.0489 82.7742 43.9577 83.362 43.7887 83.9559C43.6273 84.5352 43.3973 85.1115 43.0989 85.6848C42.7969 86.2469 42.4214 86.7708 41.9725 87.2564Z" fill="white"/>
<path d="M61.9019 63.4815C62.0878 63.214 62.3347 62.9641 62.6424 62.7319C62.9501 62.4998 63.3107 62.3185 63.7242 62.1881C64.7971 61.8498 65.7461 61.9561 66.571 62.507C67.4071 63.0543 68.0507 64.0433 68.5017 65.4739L72.3974 77.8293C72.4573 78.0193 72.477 78.179 72.4563 78.3084C72.4433 78.4231 72.4065 78.5207 72.3459 78.6012C72.2929 78.6671 72.2179 78.7215 72.1209 78.7644C72.0238 78.8073 71.925 78.8446 71.8244 78.8763L70.7515 79.2146C70.4609 79.3062 70.2444 79.2823 70.1022 79.1428C69.9711 78.9998 69.8756 78.8333 69.8157 78.6433L65.8671 66.1202C65.6663 65.4832 65.3956 65.034 65.0552 64.7727C64.726 64.5079 64.3099 64.4548 63.8069 64.6134C63.5499 64.6944 63.3102 64.8499 63.0877 65.0797C62.873 65.2949 62.712 65.5054 62.6049 65.7112L66.4741 77.9828C66.5975 78.374 66.6826 78.7219 66.7295 79.0266C66.7764 79.3313 66.7478 79.6107 66.6435 79.8647C66.5358 80.1076 66.3413 80.3286 66.0601 80.5279C65.7789 80.7271 65.37 80.9113 64.8336 81.0805L57.0716 83.5278C56.6357 83.6652 56.2566 83.7295 55.9343 83.7205C55.6232 83.708 55.3538 83.6332 55.1263 83.4961C54.8987 83.3589 54.7056 83.1556 54.5469 82.8862C54.3883 82.6168 54.2473 82.2864 54.1239 81.8953L46.9352 59.0955C46.8154 58.7155 46.7432 58.3696 46.7186 58.0579C46.6905 57.735 46.7415 57.4486 46.8716 57.1987C47.0017 56.9488 47.2185 56.7207 47.5221 56.5144C47.8257 56.3081 48.2457 56.1203 48.7822 55.9512L56.1251 53.636C56.628 53.4774 57.05 53.3935 57.3912 53.3842C57.7435 53.3714 58.0407 53.4375 58.283 53.5822C58.5217 53.7159 58.7148 53.9192 58.8623 54.1921C59.021 54.4616 59.1638 54.7975 59.2907 55.1998L61.9019 63.4815ZM57.9132 55.8C57.8357 55.5541 57.7573 55.3638 57.6779 55.2291C57.5986 55.0944 57.4981 55.0093 57.3763 54.974C57.2511 54.9275 57.1029 54.925 56.9317 54.9667C56.757 54.9972 56.5355 55.0548 56.2673 55.1393L64.0375 79.7832C64.3057 79.6987 64.5219 79.6244 64.686 79.5603C64.8466 79.4851 64.9667 79.3981 65.0461 79.2994C65.122 79.1894 65.1556 79.0621 65.1468 78.9174C65.1346 78.7615 65.0879 78.5551 65.0068 78.298L57.9132 55.8Z" fill="white"/>
<path d="M85.6222 75.1709C84.784 75.4352 83.9246 75.6325 83.0441 75.7626C82.1636 75.8928 81.2919 75.9342 80.4291 75.8867C79.5775 75.8358 78.748 75.6795 77.9406 75.418C77.1332 75.1565 76.3761 74.7625 75.6694 74.2357C74.9739 73.7055 74.3454 73.0374 73.7841 72.2314C73.2193 71.4142 72.7536 70.4244 72.3871 69.2621C72.0277 68.1221 71.8467 67.061 71.8442 66.0788C71.8382 65.0854 71.968 64.1721 72.2336 63.3388C72.5104 62.502 72.9045 61.7449 73.4159 61.0676C73.9238 60.3791 74.5119 59.7697 75.1803 59.2395C75.8563 58.6946 76.5923 58.223 77.3882 57.8246C78.1842 57.4261 79.0013 57.0948 79.8395 56.8305C80.6107 56.5873 81.4145 56.3892 82.2509 56.2361C83.0949 56.0682 83.9375 55.993 84.7785 56.0105C85.6272 56.0132 86.4556 56.1268 87.2636 56.3512C88.0793 56.561 88.8443 56.9219 89.5587 57.4339C90.2842 57.9423 90.9403 58.6202 91.5269 59.4674C92.1211 60.2999 92.6173 61.3476 93.0155 62.6105C93.4243 63.907 93.6367 65.0872 93.6527 66.1512C93.6651 67.2039 93.5236 68.1579 93.2279 69.0129C92.94 69.8532 92.5312 70.6026 92.0015 71.2611C91.4719 71.9196 90.862 72.499 90.1719 72.9992C89.4894 73.4847 88.7561 73.9063 87.972 74.2642C87.1878 74.622 86.4046 74.9242 85.6222 75.1709ZM89.5003 69.5247C89.8468 69.4154 90.1648 69.2353 90.4542 68.9843C90.7514 68.7186 90.9668 68.3496 91.1005 67.8774C91.2454 67.4017 91.2886 66.7982 91.2301 66.0671C91.1793 65.3213 90.9865 64.4176 90.6517 63.3558C90.3346 62.3499 89.99 61.5493 89.618 60.954C89.2571 60.3551 88.8844 59.9135 88.4999 59.6292C88.1118 59.3338 87.7273 59.1663 87.3462 59.1267C86.9651 59.0872 86.6013 59.122 86.2548 59.2312C85.9866 59.3158 85.7024 59.4668 85.4024 59.6843C85.1135 59.8983 84.8819 60.2355 84.7076 60.6959C84.541 61.1417 84.4701 61.7354 84.4951 62.477C84.5165 63.2075 84.7052 64.1372 85.0611 65.266C85.417 66.3948 85.7807 67.2754 86.1521 67.9078C86.5236 68.5403 86.8942 68.9948 87.264 69.2714C87.6338 69.548 88.004 69.6893 88.3745 69.6953C88.7562 69.6978 89.1315 69.641 89.5003 69.5247ZM88.4544 70.5917C88.0645 70.6409 87.6607 70.6269 87.2431 70.5497C86.8256 70.4725 86.4102 70.2655 85.9968 69.9289C85.58 69.5812 85.1694 69.0778 84.7651 68.4189C84.3684 67.7453 83.9921 66.8441 83.6361 65.7153C83.4 64.9665 83.2368 64.293 83.1465 63.6948C83.0674 63.0931 83.0409 62.5608 83.067 62.0979C83.1042 61.6315 83.185 61.2252 83.3092 60.8788C83.4335 60.5324 83.5736 60.2364 83.7296 59.9906C83.8932 59.7301 84.0671 59.5217 84.2512 59.3653C84.443 59.1943 84.6213 59.0582 84.786 58.9571C84.3949 59.0804 83.976 59.3108 83.5294 59.6482C83.0794 59.9744 82.6995 60.4259 82.3899 61.0028C82.0803 61.5796 81.8888 62.2974 81.8155 63.156C81.7498 64 81.8985 64.9975 82.2614 66.1487C82.6279 67.3111 83.0633 68.2243 83.5677 68.8886C84.072 69.5528 84.5997 70.0377 85.1506 70.3432C85.7127 70.6452 86.2791 70.8045 86.8496 70.8212C87.4277 70.8233 87.9627 70.7467 88.4544 70.5917Z" fill="white"/>
<path d="M102.3 49.9698C103.127 49.709 103.968 49.5115 104.823 49.3772C105.678 49.2429 106.523 49.1974 107.36 49.2407C108.197 49.284 109.005 49.4287 109.783 49.6749C110.561 49.9211 111.288 50.2999 111.966 50.8113C112.643 51.3227 113.255 51.9776 113.802 52.776C114.345 53.5631 114.796 54.5267 115.155 55.6667C115.599 57.075 115.782 58.3566 115.704 59.5117C115.622 60.6556 115.356 61.6797 114.903 62.5841C114.451 63.4885 113.847 64.281 113.091 64.9618C112.332 65.6313 111.49 66.1976 110.567 66.6607L112.005 71.2206C112.132 71.623 112.208 71.98 112.232 72.2918C112.257 72.6035 112.21 72.8825 112.091 73.1289C111.986 73.383 111.786 73.6058 111.49 73.7974C111.209 73.9966 110.817 74.1756 110.314 74.3341L102.971 76.6493C102.435 76.8185 101.983 76.9056 101.616 76.9107C101.249 76.9159 100.939 76.8478 100.685 76.7065C100.436 76.5764 100.231 76.3767 100.073 76.1072C99.9139 75.8378 99.7729 75.5075 99.6495 75.1163L95.4209 61.7047C94.9839 60.3188 94.8069 59.0169 94.8898 57.7988C94.9838 56.5773 95.3225 55.4691 95.9058 54.4742C96.5003 53.4758 97.3299 52.5998 98.3948 51.8463C99.4674 51.0781 100.769 50.4526 102.3 49.9698ZM112.769 56.4006C112.498 55.54 112.151 54.7708 111.729 54.0931C111.306 53.4153 110.804 52.8549 110.222 52.4118C109.64 51.9686 108.979 51.6669 108.241 51.5066C107.51 51.3316 106.692 51.3312 105.789 51.5055L109.891 64.5148C110.727 64.1282 111.395 63.6536 111.893 63.0909C112.403 62.5248 112.767 61.8877 112.986 61.1796C113.205 60.4716 113.292 59.7132 113.246 58.9045C113.2 58.0958 113.041 57.2611 112.769 56.4006ZM104.323 51.7651C104.23 51.7821 104.12 51.8044 103.993 51.832C103.867 51.8596 103.735 51.889 103.597 51.9201C103.471 51.9477 103.352 51.9791 103.24 52.0143C103.128 52.0495 103.044 52.076 102.988 52.0936L109.568 73.021C109.837 72.9365 110.051 72.8566 110.212 72.7814C110.376 72.7173 110.496 72.6303 110.572 72.5204C110.651 72.4216 110.685 72.2943 110.672 72.1384C110.664 71.9938 110.619 71.7929 110.538 71.5358L104.323 51.7651Z" fill="white"/>
<path d="M144.623 1.49213C143.105 1.50525 141.301 1.90392 139.348 2.66025C135.181 4.27873 130.317 7.53127 125.83 12.0184C121.334 16.5055 118.081 21.3781 116.468 25.5453C115.657 27.6289 115.262 29.532 115.297 31.1153C115.332 32.6738 115.773 33.8879 116.613 34.7246C117.455 35.5695 118.661 36.0043 120.228 36.0453C121.802 36.0781 123.705 35.6844 125.797 34.8723C129.964 33.2563 134.829 29.9996 139.316 25.5125C143.803 21.0254 147.059 16.161 148.675 11.9856C149.487 9.90197 149.881 7.99885 149.848 6.42467C149.807 4.85869 149.373 3.65201 148.528 2.81119C147.683 1.96955 146.477 1.52904 144.918 1.49459C144.82 1.49213 144.721 1.49131 144.623 1.49213ZM150.086 2.36986C150.898 3.4658 151.292 4.85541 151.325 6.39596C151.366 8.23674 150.915 10.3121 150.045 12.5188C148.339 16.9485 144.976 21.9442 140.366 26.5543C135.747 31.1727 130.752 34.5278 126.322 36.2422C124.115 37.1117 122.04 37.5547 120.198 37.5219C118.963 37.4973 117.825 37.2348 116.858 36.718C116.924 36.7918 116.991 36.8656 117.061 36.9313C119.189 39.0641 122.991 39.343 127.585 37.809C132.179 36.2832 137.454 32.9528 142.203 28.1949C146.953 23.4453 150.283 18.1789 151.809 13.5852C153.351 8.99142 153.064 5.18928 150.931 3.06056C150.677 2.80299 150.39 2.5733 150.086 2.36986ZM137.585 9.04885C138.225 9.04885 138.84 9.23752 139.283 9.68049C139.832 10.2301 139.98 11.0258 139.89 11.8215C139.808 12.6172 139.504 13.4785 139.045 14.4137C138.126 16.284 136.551 18.4332 134.492 20.4922C132.433 22.5512 130.284 24.1262 128.414 25.0449C127.487 25.5043 126.617 25.8078 125.821 25.8899C125.026 25.9801 124.23 25.8324 123.68 25.2828C123.131 24.7332 122.983 23.9375 123.073 23.1418C123.155 22.3461 123.459 21.4766 123.918 20.5414C124.837 18.6711 126.412 16.5301 128.471 14.4711C130.53 12.4121 132.679 10.8289 134.55 9.91017C135.485 9.4508 136.346 9.15549 137.142 9.07346C137.289 9.05705 137.437 9.04885 137.585 9.04885Z" fill="white"/>
</svg>
